<?xml version="1.0" encoding="UTF-8" standalone="no"?>
<!DOCTYPE svg PUBLIC "-//W3C//DTD SVG 1.1//EN" "http://www.w3.org/Graphics/SVG/1.1/DTD/svg11.dtd">
<svg width="100%" height="100%" viewBox="0 0 1425 1425" version="1.1" xmlns="http://www.w3.org/2000/svg"
    xmlns:xlink="http://www.w3.org/1999/xlink" xml:space="preserve" xmlns:serif="http://www.serif.com/"
    style="fill-rule:evenodd;clip-rule:evenodd;stroke-linejoin:round;stroke-miterlimit:2;">
    <g transform="matrix(1.12744,0,0,1.12744,-135.208,-135.208)">
        <path
            d="M1350,450C1350,284.425 1215.58,150 1050,150L450,150C284.425,150 150,284.425 150,450L150,1050C150,1215.58 284.425,1350 450,1350L1050,1350C1215.58,1350 1350,1215.58 1350,1050L1350,450Z"
            style="fill:rgb(34,81,159);" />
    </g>
    <g transform="matrix(1,0,0,1,-217.638,-29.1411)">
        <g transform="matrix(1256.44,0,0,1256.44,300,1200)">
            <path
                d="M0.73,-0.641L0.922,-0.641L0.922,-0.426L0.844,-0.426L0.844,-0.566L0.156,-0.566L0.156,-0.414L0.078,-0.414L0.078,-0.641L0.645,-0.641L0.727,-0.813L0.809,-0.773C0.819,-0.76 0.815,-0.753 0.797,-0.75L0.73,-0.641ZM0.492,-0.809C0.531,-0.759 0.557,-0.719 0.57,-0.688L0.488,-0.645C0.467,-0.691 0.444,-0.732 0.418,-0.766L0.492,-0.809ZM0.465,-0.359L0.531,-0.355L0.645,-0.422L0.23,-0.422L0.23,-0.484L0.711,-0.484L0.723,-0.496L0.789,-0.434C0.797,-0.423 0.79,-0.418 0.77,-0.418C0.691,-0.368 0.616,-0.328 0.543,-0.297L0.543,-0.258L0.949,-0.258L0.949,-0.184L0.543,-0.184L0.543,0.016C0.543,0.057 0.522,0.078 0.48,0.078L0.375,0.078L0.359,-0.008L0.449,-0.008C0.46,-0.008 0.465,-0.013 0.465,-0.023L0.465,-0.184L0.059,-0.184L0.059,-0.258L0.465,-0.258L0.465,-0.359ZM0.262,-0.645C0.238,-0.691 0.215,-0.728 0.191,-0.754L0.266,-0.797C0.294,-0.766 0.32,-0.729 0.344,-0.688L0.262,-0.645Z"
                style="fill:rgb(210,255,200);fill-rule:nonzero;" />
        </g>
    </g>
</svg>